<svg width="20" height="20" viewBox="0 0 20 20" fill="none" xmlns="http://www.w3.org/2000/svg">
<path d="M12.5001 18.9584H7.50008C2.97508 18.9584 1.04175 17.025 1.04175 12.5V7.50002C1.04175 2.97502 2.97508 1.04169 7.50008 1.04169H11.6667C12.0084 1.04169 12.2917 1.32502 12.2917 1.66669C12.2917 2.00835 12.0084 2.29169 11.6667 2.29169H7.50008C3.65841 2.29169 2.29175 3.65835 2.29175 7.50002V12.5C2.29175 16.3417 3.65841 17.7084 7.50008 17.7084H12.5001C16.3417 17.7084 17.7084 16.3417 17.7084 12.5V8.33335C17.7084 7.99169 17.9917 7.70835 18.3334 7.70835C18.6751 7.70835 18.9584 7.99169 18.9584 8.33335V12.5C18.9584 17.025 17.0251 18.9584 12.5001 18.9584Z" fill="#10011C"/>
<path d="M18.3334 8.95713H15.0001C12.1501 8.95713 11.0417 7.84879 11.0417 4.99879V1.66546C11.0417 1.41546 11.1917 1.18212 11.4251 1.09046C11.6584 0.990457 11.9251 1.04879 12.1084 1.22379L18.7751 7.89046C18.9501 8.06546 19.0084 8.34047 18.9084 8.5738C18.8084 8.80713 18.5834 8.95713 18.3334 8.95713ZM12.2917 3.17379V4.99879C12.2917 7.14879 12.8501 7.70712 15.0001 7.70712H16.8251L12.2917 3.17379Z" fill="#10011C"/>
</svg>
